<?xml version="1.0" encoding="UTF-8" standalone="no"?>
<svg xmlns="http://www.w3.org/2000/svg" width="128" height="35" fill="none" viewBox="0 0 128 35"><path fill="#F9F9F9" d="M4.312 28.27c-1.037-.358-1.817-1.17-2.017-2.145-.035-.182-.062-1.04-.06-1.819l.001-1.494.117.344c.266.78.973 1.494 1.752 1.754.461.176 1.237.234 1.624.13.266-.065 20.81-9.81 22.353-10.655.844-.422 1.25-.981 1.507-1.63.097-.274.155-.204.135 1.435-.015 1.624-.023 1.754-.162 2.014-.228.494-.565.91-.973 1.17-.364.253-22.031 10.655-22.674 10.85-.429.156-1.237.156-1.688.004l.085.041z"></path><path fill="#75E5EE" d="M4.248 25.28c-.912-.306-1.623-.961-1.881-1.793-.13-.41-.13-.584-.13-10.72 0-6.692.023-10.395.065-10.655A2.504 2.504 0 013.795.248c.358-.168.54-.207.977-.234.311-.014.646.009.782.053.24.07 22.108 9.94 22.887 10.265.976.499 1.558 1.67 1.235 2.696-.292 1.027-.718 1.352-2.47 2.255-5.714 2.709-21.266 10.07-21.465 10.135-.536.149-1.286-.028-1.494-.141v.004z"></path><path fill="#5EDCEE" d="M2.254 23.098l-.018-9.161c-.011-5.977.005-9.29.048-9.55.207-1.105 1.097-1.95 2.194-2.145.298-.047.536-.047.775.003.27.05 3.491 1.494 11.36 5.132 6.073 2.794 11.36 4.932 11.617 5.061.44.208 1.29.91 1.29 1.105 0 .057-.086.49-.293.689-.446.435.416-.01-12.846 6.36C10.695 23.321 5.928 25.4 5.73 25.465c-.356.098-1.105-.035-1.466-.183a2.824 2.824 0 01-.975-.507c-.441-.295-.742-.807-.89-1.176-.064-.166-.082-.337-.15-.501h.006z"></path><path fill="#26C5FD" d="M4.312 34.441c-1.042-.35-1.82-1.15-2.013-2.105-.037-.19-.01-1.617-.007-3.468-.035-2.686-.013-3.002.056-2.857.305.955 1.282 1.733 2.382 1.856.907.134.285.39 12.028-5.1 5.912-2.742 11.064-5.165 11.322-5.354.714-.363.887-.825 1.408-1.449l.232-.402.062 3.314c.062 3.313-.02 3.378-.162 3.632-.227.484-.565.89-.971 1.15-.364.248-22 10.46-22.643 10.655-.428.153-1.235.153-1.685.004l-.009.124z"></path><path fill="#4E9EED" d="M2.318 30.628c.004-1.3-.035-1.514.043-1.254.262.844.933 1.682 1.782 1.942.413.117 1.177.137 1.57.032.327-.091 22.45-10.59 22.9-10.85a2.94 2.94 0 001.177-1.495c.029-.09.046.585.038 1.494-.013 1.56-.023 1.69-.164 2.015-.249.617-.784 1.104-1.634 1.559-.386.195-5.564 2.664-11.514 5.457L5.71 34.661l-.622.02c-.472.016-.72-.008-.985-.097-.88-.503-1.595-1.222-1.775-2.028-.02-.661-.01-1.35-.01-1.928z"></path><path fill="#34C9FE" d="M34.383 16.234v-9.94h3.862l.004 3.898c.003 2.729.024 3.833.07 3.703.26-.636.36-.844.595-1.04.526-.493.488-.487 2.403-.487 1.648 0 1.706.008 2.156.15 1.393.494 2.403 1.754 2.598 3.313.032.254.06 2.729.06 5.458l.003 5.002h-3.862l-.037-10.395-.209-.435c-.348-.715-1.016-1.17-1.771-1.17-.755 0-1.394.43-1.771 1.17l-.21.435-.036 10.395h-3.862l.007-10.057zm17.453 9.876c-.697-.189-1.14-.468-1.707-1.04-.588-.61-.885-1.104-1.015-1.82-.14-.597-.14-7.276 0-7.86.164-.715.493-1.3 1.074-1.885.557-.558 1.016-.844 1.706-1.04.557-.149 5.32-.149 5.887.004 1.074.286 2.155 1.234 2.598 2.274.291.714.317 1.04.317 4.612 0 3.704-.02 3.964-.43 4.808-.444.91-1.46 1.754-2.469 2.014-.544.143-5.379.143-5.887 0l-.074-.067zm3.861-2.08c.38-.2.762-.597.95-1.039.134-.292.134-.364.134-3.768v-3.509l-.177-.37c-.196-.403-.526-.78-.951-.974-.393-.215-1.205-.215-1.648.004a2.28 2.28 0 00-.95.975l-.146.305-.02 3.379c-.013 2.403.002 3.508.054 3.638.165.604.633 1.104 1.263 1.364.374.15 1.14.091 1.517-.117l-.026.113zm7.88-7.796v-9.94h3.861v19.945h-3.861V16.234zm9.637 9.876c-1.263-.377-2.279-1.43-2.656-2.794-.108-.357-.115-.65-.115-4.028 0-3.379.01-3.704.115-4.028.328-1.105 1.074-2.014 2.025-2.47.82-.396.95-.409 3.926-.39 2.534.023 2.657.027 3.041.17 1.075.41 2.026 1.364 2.345 2.469l.146.435v7.731l-.146.436c-.374 1.104-1.263 2.079-2.344 2.469-.387.149-.45.149-3.165.162-2.468.014-2.787.003-3.165-.098l-.007-.064zm3.738-1.95c.468-.181.951-.65 1.075-1.104.126-.35.132-.474.132-3.768 0-3.249-.004-3.379-.132-3.704-.355-.974-1.518-1.494-2.468-1.169-.633.253-1.075.715-1.264 1.43-.082.324-.095.909-.076 3.638.022 3.573.018 3.573.463 4.093.556.65 1.393.91 2.214.591l.056-.007zm8.01-7.86V6.358h3.861v19.946h-3.861V16.299zm6.772 2.988v-6.952h3.862v13.903h-3.862v-6.951zm6.773.003V12.34h3.861v11.955l1.264-.022c1.139-.02 1.263-.033 1.517-.168.386-.195.697-.527.951-.91l.17-.338.035-10.525h3.862v3.833c0 3.054-.019 3.963-.095 4.353-.45 2.664-2.345 4.808-4.936 5.523-.468.136-.633.143-3.543.162l-3.04.022-.046-6.933zm16.996 6.822c-1.328-.37-2.403-1.494-2.787-2.859-.082-.344-.095-.91-.082-4.158l.018-3.768.177-.455a4.263 4.263 0 012.345-2.404c.386-.143.462-.15 3.041-.169 2.976-.025 3.1-.01 3.927.39.95.455 1.647 1.365 2.025 2.47.095.31.114.649.139 2.728l.025 2.339h-7.815v1.17c0 1.429.077 1.753.57 2.208.513.526.762.585 2.345.585 1.517 0 1.771-.06 2.279-.487.316-.28.633-.91.633-1.3v-.247h1.96l-.043.377c-.19 1.69-1.328 3.054-2.845 3.508-.551.15-5.379.143-5.887 0l-.025.072zm4.936-8.9c.025-1.43-.133-2.015-.697-2.535-1.015-.844-2.598-.435-3.041.78-.114.312-.133.507-.133 1.56v1.169l3.927-.035-.056-.94zM91.787 9.22v-.975h3.861v1.95h-3.861V9.22z"></path><path fill="#93A7AC" d="M48.45 34.612c0-.052.076-.5.166-.975.257-1.364.77-4.483.77-4.548 0-.035.199-.063.449-.063.359 0 .449.02.449.097 0 .117-.023.117.346-.007.205-.072.45-.098.77-.078.596.034.962.273 1.218.78.174.33.186.39.154.91-.048.779-.23 1.233-.705 1.753-.282.286-.494.436-.77.533-.442.169-1.026.182-1.347.042-.128-.054-.25-.084-.27-.063-.024.026-.313 1.56-.326 1.754-.001.01-.206.017-.45.017-.346 0-.448-.022-.448-.091l-.007-.061zm2.822-2.534c.333-.208.538-.54.615-.975.084-.5.036-.714-.205-.974-.154-.156-.237-.189-.526-.189-.706 0-1.219.604-1.219 1.495a.889.889 0 00.366.714c.357.106.725.11.969-.071zm4.105.974c0-.09.641-3.768.705-3.898.028-.09.11-.117.475-.117s.436.017.404.098c-.02.054-.023.097-.006.097s.154-.043.301-.097c.148-.054.456-.098.706-.098.462 0 .462-.002.34.585l-.07.325h-.366c-.45 0-.77.15-.962.494-.148.214-.206.448-.379 1.494l-.205 1.234h-.436c-.238 0-.436-.028-.436-.063l-.071-.054zm5.965-.11c-.642-.35-.898-1.04-.706-2.014.148-.78.597-1.364 1.22-1.69.422-.22 1.154-.272 1.538-.123.533.208.963.845.963 1.43 0 .78-.308 1.559-.77 2.014-.449.409-.834.571-1.411.604-.421.027-.633-.063-.834-.221zm2.123-2.08c.07-.603-.218-.974-.77-.974-.34 0-.57.104-.834.37-.256.287-.32.449-.359.975l-.036.481c.274.33.581.467.847.448.289-.021.436-.071.616-.214.315-.26.494-.747.536-1.085zm4.099 2.08c-.642-.338-.898-1.04-.706-1.95.148-.779.597-1.364 1.219-1.688.423-.221 1.154-.28 1.54-.124.134.057.269.091.294.072.027-.017.065-.163.09-.325.022-.163.09-.559.148-.91l.102-.585h.45c.43 0 .448.006.416.143-.018.078-.243 1.365-.5 2.86l-.468 2.728h-.436c-.347 0-.437-.02-.437-.098 0-.053-.007-.097-.016-.097-.009 0-.16.044-.333.097-.524.153-1.13.032-1.36-.123h-.003zm1.603-.975c.283-.214.462-.59.52-1.104.07-.604-.218-.975-.77-.975-.34 0-.57.104-.834.37-.243.267-.301.41-.346.91-.047.462.044.715.308.91.23.169.834.104 1.09-.13l.032.02zm5.132.975a1.2 1.2 0 01-.533-.494c-.275-.448-.282-.845-.043-2.209.11-.624.2-1.17.2-1.17 0-.025.205-.045.455-.045h.455l-.035.181c-.212 1.105-.379 2.274-.34 2.47.026.103.141.272.25.383.186.175.237.188.564.162.417-.03.77-.247.963-.591.059-.117.198-.715.314-1.364.115-.65.218-1.17.237-1.17.019-.019.218-.025.45-.015l.41.02-.706 4.028h-.436c-.346 0-.436-.02-.436-.098 0-.053-.007-.097-.016-.097-.01 0-.16.044-.334.097-.506.156-.962.13-1.41-.084l-.01-.004zm6.67.097c-.371-.123-.769-.545-.897-.974-.097-.331-.097-.448-.035-.91.186-1.234.962-2.079 2.053-2.144.705-.047 1.282.228 1.54.78l.12.247-.833.396-.237-.253c-.212-.228-.276-.254-.54-.254-.371 0-.769.189-.961.462-.077.11-.18.396-.231.63-.11.513-.044.78.244 1.04.346.298 1.026.175 1.347-.241.102-.13.102-.13.43.037.179.09.346.195.365.234.064.11-.532.65-.898.845-.417.194-1.09.253-1.475.13l.009-.025zm6.35-.04c-.538-.337-.596-.597-.384-1.818.09-.533.186-1.04.205-1.105.034-.143.02-.143-.43-.143h-.461l.04-.35c.065-.553.061-.553.578-.572l.455-.02.141-.779c.078-.429.142-.78.148-.78.002-.009.199-.016.443-.016h.442l-.122.65c-.18 1.04-.198.975.321.975h.443l-.056.311c-.115.643-.07.598-.564.598-.366 0-.449.02-.475.117-.09.318-.308 1.754-.288 1.95.02.188.03.188.43.207.384.018.404.028.371.162-.018.078-.053.28-.076.449l-.045.312h-.455c-.334 0-.513-.034-.642-.124L87.32 33zm4.363.085c0-.05.57-3.313.641-3.703l.064-.338h.443c.43 0 .442.006.41.143-.043.195-.705 3.833-.705 3.898 0 .024-.206.043-.45.043-.243 0-.448-.015-.448-.033l.045-.01zm4.939-.071c-.514-.189-.898-.845-.898-1.43 0-.376.224-1.234.404-1.494.57-.91 1.732-1.3 2.63-.845.641.332.897.91.705 1.82-.141.91-.584 1.494-1.283 1.884-.43.214-1.09.26-1.54.104l-.018-.04zm1.218-.91c.212-.11.494-.39.603-.598.053-.104.11-.402.135-.65l.036-.474c-.244-.294-.547-.454-.802-.454-.635 0-1.09.467-1.155 1.299-.052.403.084.78.347.91.3.091.641.126.834-.033h.002zm3.977.975c0-.05.571-3.314.642-3.704l.064-.337h.449c.372 0 .442.016.417.097-.046.117-.013.117.314.002.366-.136 1.026-.124 1.347.023.378.176.706.598.834 1.04.07.318.056.474-.141 1.624l-.218 1.3-.43.019c-.372.016-.43.003-.43-.091 0-.06.09-.624.199-1.234.199-1.105.199-1.17.09-1.365-.212-.448-.77-.572-1.283-.273-.404.24-.513.514-.706 1.82-.109.623-.199 1.169-.199 1.169 0 .025-.205.046-.449.046-.243 0-.449-.015-.449-.033l-.051-.103z"></path><path fill="#4E9EED" d="M48.706 33.052l.923.084-.28 1.604-.431.021-.523-.027.31-1.682z"></path><path fill="#34C9FE" d="M92.58 27.465l.878.024-.142.981-.892-.024.155-.981z"></path></svg>