<?xml version="1.0" encoding="UTF-8" standalone="no"?>
<svg
   width="396"
   height="331"
   viewBox="0 0 396 331"
   fill="none"
   version="1.1"
   id="svg1245"
   sodipodi:docname="master.svg"
   inkscape:version="1.2.1 (9c6d41e410, 2022-07-14)"
   xmlns:inkscape="http://www.inkscape.org/namespaces/inkscape"
   xmlns:sodipodi="http://sodipodi.sourceforge.net/DTD/sodipodi-0.dtd"
   xmlns="http://www.w3.org/2000/svg"
   xmlns:svg="http://www.w3.org/2000/svg">
  <sodipodi:namedview
     id="namedview1247"
     pagecolor="#ffffff"
     bordercolor="#000000"
     borderopacity="0.25"
     inkscape:showpageshadow="2"
     inkscape:pageopacity="0.0"
     inkscape:pagecheckerboard="0"
     inkscape:deskcolor="#d1d1d1"
     showgrid="false"
     inkscape:zoom="1.3314142"
     inkscape:cx="504.72649"
     inkscape:cy="222.69554"
     inkscape:window-width="1920"
     inkscape:window-height="991"
     inkscape:window-x="-9"
     inkscape:window-y="-9"
     inkscape:window-maximized="1"
     inkscape:current-layer="svg1245" />
  <path
     id="path1251"
     style="fill:#ffffff"
     d="M 198.08398,39.00781 69.353516,55.00586 c -0.05601,0.007 -0.102338,0.0362 -0.15625,0.0488 -0.07809,0.018 -0.150451,0.0422 -0.22461,0.0723 -0.125623,0.0511 -0.237423,0.11656 -0.34375,0.19727 -0.03543,0.0269 -0.07987,0.0361 -0.113281,0.0664 -0.01895,0.0172 -0.02498,0.0427 -0.04297,0.0605 -0.106552,0.10528 -0.189221,0.22553 -0.261718,0.35742 -0.02673,0.0484 -0.06264,0.0897 -0.08398,0.14063 -0.0714,0.1709 -0.112077,0.35533 -0.117187,0.54883 -5.48e-4,0.017 -0.0098,0.0317 -0.0098,0.0488 v 11.78124 c 0,0.785 0.588882,1.44802 1.363281,1.54102 l 77.083989,9.12109 0.83789,6.40039 c -23.25943,12.64443 -41.32182,33.66453 -50.177738,58.98047 l -17.53125,4.96094 c -4.853095,1.374 -8.230469,5.84958 -8.230469,10.89258 v 40.44922 c 0,5.04399 3.387674,9.51858 8.230469,10.89258 l 18.080078,5.11523 c 11.08674,30.14407 35.34111,53.94593 65.73437,64.45117 0.16445,0.0896 0.33828,0.14955 0.51758,0.17578 10.79782,3.67012 22.35017,5.69141 34.3711,5.69141 12.02992,0 23.58973,-2.02384 34.39453,-5.69922 0.19347,-0.026 0.38376,-0.0919 0.56445,-0.1914 30.32984,-10.50717 54.53537,-34.2601 65.62891,-64.3379 l 18.32226,-5.18359 c 4.853,-1.375 8.23047,-5.84958 8.23047,-10.89258 v -40.45117 c 0,-5.04299 -3.38747,-9.51758 -8.23047,-10.89258 l -17.75586,-5.03125 c -0.53949,-1.53972 -1.11381,-3.06143 -1.7207,-4.56836 h 0.82813 c 0.85699,0 1.54882,-0.69106 1.54882,-1.53906 v -28.44141 c 0,-3.84793 -2.23661,-7.17815 -5.47265,-8.76562 V 73.54095 l 32.59961,-3.91993 c 0.774,-0.093 1.36132,-0.75601 1.36132,-1.54101 v -11.5332 c 0,-0.36566 -0.15146,-0.69837 -0.38085,-0.97266 -0.0175,-0.0217 -0.0302,-0.0457 -0.0488,-0.0664 -0.0335,-0.0358 -0.0487,-0.0847 -0.0859,-0.11719 -0.061,-0.0536 -0.14098,-0.0758 -0.20898,-0.11914 -0.0739,-0.0499 -0.14817,-0.0923 -0.23047,-0.1289 -0.0892,-0.0378 -0.17513,-0.0651 -0.26953,-0.0859 -0.0547,-0.0129 -0.10138,-0.0439 -0.15821,-0.0508 L 198.4668,39.00781 c -0.124,-0.011 -0.25882,-0.011 -0.38282,0 z m 86.7754,35.70703 v 26.2793 c -3.22898,1.57436 -5.46081,4.88265 -5.49024,8.70117 -8.46212,-9.80224 -18.64082,-18.07882 -30.09766,-24.30664 l 0.84961,-6.49805 z" />
  <path
     d="m 101.497,216.114 c -0.145,0 -0.279,-0.02 -0.424,-0.062 l -21.0743,-5.963 c -4.1819,-1.188 -7.104,-5.053 -7.104,-9.404 v -40.45 c 0,-4.351 2.9221,-8.216 7.104,-9.405 l 21.0743,-5.963 c 0.135,-0.041 0.279,-0.062 0.424,-0.062 0.33,0 0.661,0.104 0.929,0.31 0.392,0.29 0.62,0.755 0.62,1.24 v 68.209 c 0,0.486 -0.228,0.941 -0.62,1.24 -0.258,0.207 -0.588,0.31 -0.929,0.31 z"
     fill="url(#paint0_linear)"
     id="path996"
     style="fill:url(#paint0_linear)" />
  <path
     d="m 101.497,146.355 v 68.209 l -21.075,-5.963 c -3.5417,-1.002 -5.9786,-4.237 -5.9786,-7.916 v -40.45 c 0,-3.679 2.4472,-6.914 5.9786,-7.917 z m 0,-3.1 c -0.279,0 -0.568,0.041 -0.847,0.114 l -21.0747,5.963 c -4.8531,1.374 -8.2296,5.849 -8.2296,10.892 v 40.45 c 0,5.044 3.3868,9.519 8.2296,10.893 l 21.0747,5.963 c 0.279,0.083 0.558,0.114 0.847,0.114 0.671,0 1.321,-0.217 1.869,-0.631 0.774,-0.589 1.228,-1.498 1.228,-2.47 v -68.208 c 0,-0.972 -0.454,-1.892 -1.228,-2.47 -0.537,-0.393 -1.198,-0.61 -1.869,-0.61 z"
     fill="#8e0000"
     id="path998" />
  <path
     d="m 295.268,216.115 c -0.33,0 -0.661,-0.103 -0.939,-0.31 -0.382,-0.289 -0.61,-0.755 -0.61,-1.24 v -68.209 c 0,-0.486 0.228,-0.941 0.61,-1.24 0.268,-0.207 0.599,-0.31 0.939,-0.31 0.145,0 0.279,0.02 0.424,0.062 l 21.074,5.963 c 4.182,1.188 7.104,5.053 7.104,9.404 v 40.45 c 0,4.351 -2.922,8.216 -7.104,9.405 l -21.074,5.963 c -0.145,0.041 -0.279,0.062 -0.424,0.062 z"
     fill="url(#paint1_linear)"
     id="path1000"
     style="fill:url(#paint1_linear)" />
  <path
     d="m 295.269,146.355 21.074,5.963 c 3.542,1.003 5.979,4.238 5.979,7.917 v 40.45 c 0,3.679 -2.447,6.914 -5.979,7.916 l -21.074,5.963 z m 0,-3.1 c -0.672,0 -1.322,0.217 -1.869,0.63 -0.775,0.589 -1.229,1.499 -1.229,2.47 v 68.209 c 0,0.972 0.454,1.891 1.229,2.47 0.547,0.413 1.197,0.631 1.869,0.631 0.278,0 0.567,-0.042 0.846,-0.114 l 21.075,-5.963 c 4.853,-1.375 8.229,-5.85 8.229,-10.893 v -40.45 c 0,-5.043 -3.386,-9.518 -8.229,-10.893 l -21.075,-5.973 c -0.279,-0.083 -0.568,-0.124 -0.846,-0.124 z"
     fill="#8e0000"
     id="path1002" />
  <path
     d="m 198.279,285.45 c 58.339,0 105.632,-47.334 105.632,-105.724 0,-58.389 -47.293,-105.724 -105.632,-105.724 -58.339,0 -105.6314,47.335 -105.6314,105.724 0,58.39 47.2924,105.724 105.6314,105.724 z"
     fill="url(#paint2_radial)"
     id="path1004"
     style="fill:url(#paint2_radial)" />
  <path
     d="m 196.534,127.257 c -3.707,0 -7.156,-1.994 -9.004,-5.198 l -12.669,-21.972 c -1.849,-3.203 -1.849,-7.193 0,-10.407 l 0.826,-1.436 c 1.848,-3.214 5.297,-5.199 9.004,-5.199 h 27.187 c 3.697,0 7.156,1.995 9.004,5.199 l 0.826,1.436 c 1.848,3.204 1.848,7.193 0,10.407 l -12.68,21.972 c -1.848,3.204 -5.297,5.198 -9.004,5.198 z"
     fill="url(#paint3_linear)"
     id="path1006"
     style="fill:url(#paint3_linear)" />
  <path
     d="m 211.868,84.596 c 3.159,0 6.082,1.684 7.661,4.423 l 0.827,1.436 c 1.579,2.739 1.579,6.118 0,8.857 l -12.67,21.972 c -1.58,2.738 -4.502,4.423 -7.662,4.423 h -3.49 c -3.159,0 -6.082,-1.685 -7.661,-4.423 l -12.67,-21.972 c -1.58,-2.739 -1.58,-6.118 0,-8.857 l 0.826,-1.436 c 1.58,-2.739 4.502,-4.423 7.662,-4.423 z m 0,-3.101 H 184.68 c -4.254,0 -8.219,2.294 -10.346,5.974 l -0.826,1.436 c -2.127,3.69 -2.127,8.268 0,11.957 l 12.67,21.972 c 2.127,3.689 6.092,5.973 10.346,5.973 h 3.49 c 4.254,0 8.219,-2.294 10.346,-5.973 l 12.67,-21.972 c 2.127,-3.689 2.127,-8.267 0,-11.957 l -0.826,-1.436 c -2.117,-3.68 -6.082,-5.974 -10.336,-5.974 z"
     fill="#9b073c"
     id="path1008" />
  <path
     d="m 145.577,121.397 -3.098,-0.186 c 0.795,-13.332 8.292,-32.854 20.641,-42.754 l 1.941,2.418 c -11.647,9.342 -18.73,27.852 -19.484,40.522 z"
     fill="#1d3c5b"
     id="path1010" />
  <path
     d="m 250.981,121.397 c -0.753,-12.66 -7.847,-31.169 -19.536,-40.532 l 1.942,-2.419 c 12.38,9.922 19.897,29.444 20.692,42.765 z"
     fill="#1d3c5b"
     id="path1012" />
  <path
     d="m 232.468,281.316 c -0.486,0 -0.971,-0.228 -1.27,-0.662 -0.496,-0.702 -0.321,-1.664 0.382,-2.16 11.606,-8.154 18.668,-24.286 19.412,-35.323 0.062,-0.858 0.785,-1.52 1.652,-1.437 0.857,0.062 1.497,0.796 1.446,1.654 -0.795,11.75 -8.333,28.937 -20.724,37.649 -0.279,0.186 -0.589,0.279 -0.898,0.279 z"
     fill="#1d3c5b"
     id="path1014" />
  <path
     d="m 164.132,281.327 c -0.31,0 -0.619,-0.093 -0.888,-0.279 -12.422,-8.733 -19.97,-25.919 -20.765,-37.66 -0.062,-0.857 0.589,-1.591 1.446,-1.653 0.846,-0.072 1.59,0.589 1.652,1.436 0.743,11.028 7.816,27.16 19.453,35.335 0.703,0.496 0.868,1.457 0.383,2.16 -0.31,0.434 -0.785,0.661 -1.281,0.661 z"
     fill="#1d3c5b"
     id="path1016" />
  <path
     d="m 148.902,121.398 -3.098,-0.186 c 0.796,-13.332 8.292,-32.854 20.641,-42.755 l 1.942,2.418 c -11.648,9.343 -18.731,27.852 -19.485,40.523 z"
     fill="#ffffff"
     id="path1018" />
  <g
     opacity="0.6"
     id="g1022"
     transform="translate(0,-140)">
    <path
       opacity="0.6"
       d="m 254.317,261.398 c -0.795,-13.467 -8.023,-29.64 -17.171,-38.456 l 2.147,-2.232 c 9.655,9.301 17.275,26.333 18.122,40.502 z"
       fill="#ffffff"
       id="path1020" />
  </g>
  <g
     opacity="0.6"
     id="g1026"
     transform="matrix(0.7529098,0,0,0.8909113,63.605427,-98.357901)">
    <path
       opacity="0.6"
       d="m 235.793,421.316 c -0.486,0 -0.971,-0.228 -1.271,-0.662 -0.495,-0.702 -0.32,-1.664 0.383,-2.16 11.606,-8.154 18.668,-24.286 19.412,-35.323 0.062,-0.858 0.795,-1.52 1.652,-1.437 0.857,0.062 1.497,0.796 1.446,1.654 -0.796,11.75 -8.333,28.937 -20.724,37.649 -0.279,0.186 -0.589,0.279 -0.898,0.279 z"
       fill="#ffffff"
       id="path1024" />
  </g>
  <g
     opacity="0.6"
     id="g1030"
     transform="translate(0,-140)">
    <path
       opacity="0.6"
       d="m 167.467,421.327 c -0.309,0 -0.619,-0.093 -0.888,-0.279 -12.421,-8.733 -19.969,-25.919 -20.764,-37.66 -0.062,-0.857 0.588,-1.591 1.445,-1.653 0.857,-0.072 1.59,0.589 1.652,1.436 0.744,11.028 7.817,27.16 19.454,35.335 0.702,0.496 0.867,1.457 0.382,2.16 -0.31,0.434 -0.795,0.661 -1.281,0.661 z"
       fill="#ffffff"
       id="path1028" />
  </g>
  <path
     opacity="0.32"
     d="m 282.857,116.209 c -16.738,-25.01 -53.064,-42.207 -84.578,-42.207 -14.621,0 -28.55,2.977 -41.22,8.351 -5.359,2.273 -8.353,13.022 -8.353,13.022 0,0 10.036,14.974 46.021,15.998 20.703,0.589 45.609,-1.396 52.052,-7.204 11.038,-1.571 22.241,1.375 31.08,8.185 z"
     fill="#13007c"
     id="path1032" />
  <path
     d="M 198.279,287 C 139.185,287 91.0988,238.882 91.0988,179.726 91.0988,120.57 139.175,72.452 198.279,72.452 257.383,72.452 305.46,120.57 305.46,179.726 305.46,238.882 257.373,287 198.279,287 Z m 0,-211.437 c -57.39,0 -104.0825,46.733 -104.0825,104.173 0,57.44 46.6925,104.174 104.0825,104.174 57.39,0 104.083,-46.734 104.083,-104.174 0,-57.45 -46.693,-104.173 -104.083,-104.173 z"
     fill="#1d3c5b"
     id="path1034" />
  <path
     d="m 198.279,251.108 c -21.085,0 -42.593,-1.457 -63.916,-4.33 -11.306,-1.52 -20.517,-10.118 -22.912,-21.372 -6.165,-28.969 -6.165,-57.141 0,-86.109 2.395,-11.265 11.606,-19.853 22.912,-21.372 7.311,-0.982 14.766,-1.819 22.159,-2.47 0.413,-0.041 0.826,-0.052 1.229,-0.052 6.175,0 11.699,4.145 13.434,10.087 0.629,2.17 2.653,3.679 4.915,3.679 h 44.348 c 2.262,0 4.275,-1.519 4.915,-3.679 1.735,-5.932 7.259,-10.087 13.434,-10.087 0.413,0 0.816,0.021 1.229,0.052 7.414,0.651 14.869,1.478 22.159,2.46 11.306,1.519 20.517,10.107 22.912,21.372 6.165,28.968 6.165,57.14 0,86.108 -2.395,11.265 -11.606,19.853 -22.912,21.372 -21.312,2.884 -42.821,4.341 -63.906,4.341 z"
     fill="url(#paint4_linear)"
     id="path1036"
     style="fill:url(#paint4_linear)" />
  <path
     d="m 280.761,140.217 c -2.003,-9.405 -9.634,-16.608 -19.165,-17.889 -7.341,-0.992 -14.652,-1.799 -21.962,-2.439 -4.544,-0.403 -8.736,2.47 -10.016,6.852 -1.188,4.082 -4.926,6.882 -9.169,6.882 H 176.11 c -4.244,0 -7.982,-2.8 -9.169,-6.882 -1.281,-4.382 -5.473,-7.255 -10.016,-6.852 -7.3,0.64 -14.621,1.457 -21.963,2.439 -9.52,1.281 -17.161,8.484 -19.164,17.889 -6.061,28.503 -6.072,55.725 0,84.259 2.003,9.414 9.634,16.618 19.164,17.899 42.449,5.715 84.185,5.715 126.645,0 9.53,-1.281 17.161,-8.485 19.164,-17.899 6.061,-28.524 6.061,-55.756 -0.01,-84.259 z"
     fill="url(#paint5_radial)"
     id="path1038"
     style="fill:url(#paint5_radial)" />
  <path
     d="m 198.279,248.235 c -21.074,0 -42.149,-1.437 -63.523,-4.32 -10.109,-1.364 -18.328,-9.043 -20.476,-19.109 -6.082,-28.565 -6.071,-56.334 0,-84.909 2.148,-10.066 10.367,-17.745 20.466,-19.109 7.269,-0.982 14.672,-1.798 22.024,-2.45 5.266,-0.465 10.161,2.884 11.648,7.958 0.991,3.39 4.15,5.767 7.682,5.767 h 44.349 c 3.531,0 6.691,-2.367 7.682,-5.767 1.487,-5.074 6.381,-8.423 11.647,-7.958 7.352,0.652 14.766,1.468 22.025,2.45 10.099,1.364 18.328,9.043 20.465,19.109 6.082,28.565 6.082,56.334 0,84.909 -2.147,10.066 -10.366,17.745 -20.475,19.109 -21.354,2.873 -42.439,4.32 -63.514,4.32 z M 157.751,121.398 c -0.237,0 -0.465,0.01 -0.702,0.031 -7.3,0.64 -14.673,1.467 -21.89,2.438 -8.808,1.189 -15.985,7.886 -17.854,16.681 -5.988,28.131 -5.988,55.486 0,83.617 1.869,8.795 9.046,15.492 17.854,16.681 42.469,5.715 83.751,5.715 126.231,0 8.808,-1.189 15.984,-7.896 17.853,-16.681 5.989,-28.131 5.989,-55.486 0,-83.617 -1.869,-8.795 -9.045,-15.492 -17.853,-16.681 -7.218,-0.971 -14.58,-1.787 -21.89,-2.438 -3.8,-0.331 -7.332,2.077 -8.395,5.746 -1.374,4.712 -5.762,7.999 -10.656,7.999 H 176.11 c -4.905,0 -9.283,-3.287 -10.656,-7.999 -1.012,-3.442 -4.182,-5.777 -7.703,-5.777 z"
     fill="#846f08"
     id="path1040" />
  <path
     d="m 256.599,133.737 c 2.726,-3.08 0.836,-7.958 -3.242,-8.454 -4.833,-0.579 -10.45,-1.219 -14.054,-1.529 -2.106,-0.186 -4.037,0.723 -5.813,3.772 -0.072,0.134 -0.134,0.279 -0.175,0.413 -1.704,5.633 -6.981,9.549 -12.866,9.549 h -49.615 c -4.306,0 -7.486,-3.648 -7.404,-7.957 0.062,-3.287 -2.612,-5.808 -5.679,-5.808 -0.165,0 -0.33,0.01 -0.506,0.02 -7.269,0.641 -14.6,1.458 -21.777,2.419 -7.837,1.054 -14.218,7.027 -15.88,14.851 -4.564,21.454 -5.597,42.465 -3.109,63.713 0.352,2.997 3.212,5.053 6.165,4.413 18.39,-3.969 37.658,-10.459 56.843,-19.522 31.947,-15.089 58.526,-34.921 77.112,-55.88 z"
     fill="url(#paint6_linear)"
     id="path1042"
     style="fill:url(#paint6_linear)" />
  <path
     d="m 157.255,123.754 c -5.72,1.333 -11.44,2.325 -17.171,3.214 -1.435,0.227 -2.86,0.455 -4.296,0.641 -1.332,0.237 -2.622,0.579 -3.851,1.085 -1.219,0.527 -2.406,1.126 -3.501,1.881 -1.084,0.765 -2.085,1.653 -2.984,2.625 -0.898,0.982 -1.693,2.046 -2.375,3.193 -0.66,1.158 -1.177,2.388 -1.6,3.648 -0.382,1.23 -0.702,2.698 -1.022,4.093 l -0.961,4.227 c -1.249,5.653 -2.374,11.337 -3.572,17.062 -0.176,-5.859 0.237,-11.719 1.022,-17.517 0.186,-1.457 0.403,-2.904 0.65,-4.341 0.259,-1.457 0.475,-2.842 0.868,-4.423 0.434,-1.519 1.043,-2.976 1.797,-4.361 0.784,-1.374 1.703,-2.666 2.756,-3.844 1.095,-1.148 2.303,-2.171 3.604,-3.06 1.322,-0.868 2.726,-1.591 4.213,-2.128 1.487,-0.528 3.046,-0.848 4.585,-1.034 1.456,-0.134 2.911,-0.227 4.367,-0.32 5.803,-0.393 11.637,-0.682 17.471,-0.641 z"
     fill="url(#paint7_linear)"
     id="path1044"
     style="fill:url(#paint7_linear)" />
  <path
     d="m 233.315,127.949 c -0.135,2.873 -1.622,5.715 -3.873,7.762 -2.251,2.056 -5.297,3.317 -8.425,3.431 -2.902,0.051 -5.576,-0.104 -8.385,-0.331 -2.777,-0.269 -5.545,-0.61 -8.322,-1.313 2.777,-0.702 5.545,-1.043 8.322,-1.312 2.747,-0.248 5.607,-0.341 8.261,-0.372 2.416,-0.083 4.822,-0.827 6.959,-2.17 2.148,-1.323 3.986,-3.245 5.463,-5.695 z"
     fill="url(#paint8_linear)"
     id="path1046"
     style="fill:url(#paint8_linear)" />
  <path
     d="m 220.356,97.09 -12.68,21.971 c -1.58,2.739 -4.502,4.424 -7.662,4.424 h -3.49 c -3.16,0 -6.082,-1.685 -7.662,-4.424 L 176.182,97.09 c -0.598,-1.034 -0.97,-2.17 -1.115,-3.318 -0.237,1.892 0.134,3.835 1.115,5.54 l 12.68,21.971 c 1.58,2.739 4.502,4.424 7.662,4.424 h 3.49 c 3.16,0 6.082,-1.685 7.662,-4.424 l 12.68,-21.971 c 0.981,-1.705 1.352,-3.648 1.115,-5.54 -0.145,1.148 -0.516,2.284 -1.115,3.318 z"
     fill="url(#paint9_linear)"
     id="path1048"
     style="fill:url(#paint9_linear)" />
  <path
     opacity="0.4"
     d="m 278.902,164.886 c 1.766,19.191 0.599,38.228 -3.542,57.647 -1.611,7.575 -7.785,13.352 -15.364,14.375 -20.528,2.77 -41.231,4.165 -61.531,4.165 -0.207,0 -0.424,0 -0.63,-0.01 v 4.051 c 17.533,0.02 29.387,-0.775 47.075,-2.325 3.335,-0.29 12.184,-1.427 15.622,-1.871 6.413,-0.848 10.068,-2.325 15.004,-8.423 0.877,-1.085 2.003,-3.028 2.86,-5.426 0.619,-1.725 1.012,-3.544 1.497,-6.097 0.795,-4.237 1.157,-6.139 1.673,-9.983 2.096,-15.554 2.819,-30.508 1.404,-46.103 z"
     fill="url(#paint10_linear)"
     id="path1050"
     style="fill:url(#paint10_linear)" />
  <path
     d="m 199.57,214.171 c 9.314,0 16.862,-7.554 16.862,-16.876 h -33.713 c -0.011,9.322 7.538,16.876 16.851,16.876 z"
     fill="#031442"
     id="path1052" />
  <path
     d="m 156.564,191.032 c 5.52,0 9.995,-6.575 9.995,-14.685 0,-8.111 -4.475,-14.686 -9.995,-14.686 -5.521,0 -9.996,6.575 -9.996,14.686 0,8.11 4.475,14.685 9.996,14.685 z"
     fill="#031442"
     id="path1054" />
  <path
     d="m 242.577,191.032 c 5.52,0 9.995,-6.575 9.995,-14.685 0,-8.111 -4.475,-14.686 -9.995,-14.686 -5.521,0 -9.996,6.575 -9.996,14.686 0,8.11 4.475,14.685 9.996,14.685 z"
     fill="#031442"
     id="path1056" />
  <path
     d="m 198.279,105.192 c 45.051,0 48.242,-10.737 48.242,-10.737 l 5.586,-42.672 h -53.828 -53.828 l 5.587,42.672 c 0,0 3.19,10.737 48.241,10.737 z"
     fill="url(#paint11_linear)"
     id="path1058"
     style="fill:url(#paint11_linear)" />
  <path
     d="m 198.279,106.742 c -44.916,0 -49.367,-10.634 -49.728,-11.853 -0.021,-0.083 -0.042,-0.155 -0.052,-0.238 l -5.586,-42.672 c -0.062,-0.444 0.083,-0.889 0.372,-1.22 0.289,-0.33 0.722,-0.527 1.166,-0.527 h 107.656 c 0.444,0 0.867,0.197 1.167,0.527 0.289,0.331 0.433,0.786 0.371,1.22 l -5.586,42.672 c -0.01,0.083 -0.031,0.165 -0.051,0.238 -0.362,1.219 -4.812,11.853 -49.729,11.853 z m -46.734,-12.68 c 0.413,0.754 6.061,9.58 46.734,9.58 40.374,0 46.311,-8.805 46.734,-9.58 l 5.328,-40.74 H 146.217 Z"
     fill="#23307f"
     id="path1060" />
  <path
     d="M 198.279,70.727 327.009,56.547 198.279,40.549 69.5488,56.547 Z"
     fill="url(#paint12_linear)"
     id="path1062"
     style="fill:url(#paint12_linear)" />
  <path
     d="m 198.28,72.275 c -0.052,0 -0.114,0 -0.165,-0.01 L 69.3845,58.086 c -0.7847,-0.083 -1.3733,-0.745 -1.3836,-1.53 -0.0104,-0.785 0.5782,-1.457 1.3526,-1.55 L 198.084,39.008 c 0.124,-0.011 0.258,-0.011 0.382,0 l 128.73,15.998 c 0.774,0.093 1.363,0.765 1.353,1.55 -0.011,0.785 -0.599,1.447 -1.384,1.53 l -128.72,14.179 c -0.051,0.01 -0.113,0.01 -0.165,0.01 z M 82.8698,56.453 198.28,69.164 313.69,56.453 198.28,42.108 Z"
     fill="#23307f"
     id="path1064" />
  <path
     d="m 69.5488,56.547 128.7302,14.18 128.73,-14.18 V 68.081 L 198.279,83.562 69.5488,68.329 Z"
     fill="url(#paint13_linear)"
     id="path1066"
     style="fill:url(#paint13_linear)" />
  <path
     d="m 198.279,85.112 c -0.062,0 -0.124,0 -0.186,-0.01 L 69.363,69.869 C 68.5886,69.776 68,69.114 68,68.329 V 56.547 c 0,-0.444 0.1859,-0.858 0.5163,-1.157 0.3304,-0.3 0.7641,-0.434 1.2081,-0.383 L 198.289,69.166 326.854,55.007 c 0.434,-0.051 0.878,0.093 1.208,0.383 0.331,0.289 0.517,0.713 0.517,1.157 v 11.534 c 0,0.785 -0.589,1.447 -1.363,1.54 L 198.465,85.102 c -0.062,0.01 -0.124,0.01 -0.186,0.01 z M 71.0977,66.954 198.279,82.002 325.46,66.706 V 58.283 L 198.444,72.266 c -0.113,0.011 -0.227,0.011 -0.34,0 L 71.0977,58.273 Z"
     fill="#23307f"
     id="path1068" />
  <path
     d="m 289.734,117.842 c -1.838,0 -3.325,-1.488 -3.325,-3.328 V 69.682 c 0,-4.02 -3.139,-7.379 -7.146,-7.658 l -79.456,-5.549 c -1.838,-0.125 -3.221,-1.716 -3.087,-3.556 0.134,-1.839 1.724,-3.224 3.552,-3.09 l 79.456,5.55 c 7.476,0.527 13.341,6.811 13.341,14.314 v 44.831 c -0.01,1.819 -1.497,3.318 -3.335,3.318 z"
     fill="url(#paint14_linear)"
     id="path1070"
     style="fill:url(#paint14_linear)" />
  <path
     d="m 289.734,119.392 c -2.685,0 -4.874,-2.191 -4.874,-4.878 V 69.682 c 0,-3.203 -2.499,-5.89 -5.7,-6.118 l -79.456,-5.549 c -1.301,-0.093 -2.488,-0.683 -3.345,-1.664 -0.857,-0.982 -1.281,-2.243 -1.188,-3.545 0.093,-1.302 0.682,-2.491 1.673,-3.349 0.981,-0.857 2.241,-1.281 3.542,-1.188 l 79.456,5.55 c 8.281,0.578 14.776,7.544 14.776,15.853 v 44.832 c -0.01,2.697 -2.199,4.888 -4.884,4.888 z M 200.035,51.349 c -0.424,0 -0.837,0.155 -1.157,0.434 -0.361,0.31 -0.578,0.744 -0.609,1.219 -0.031,0.476 0.124,0.93 0.434,1.292 0.309,0.362 0.743,0.579 1.218,0.61 l 79.456,5.55 c 4.812,0.341 8.581,4.381 8.581,9.208 v 44.832 c 0,0.981 0.795,1.777 1.776,1.777 0.981,0 1.776,-0.796 1.776,-1.777 V 69.682 c 0,-6.696 -5.225,-12.298 -11.895,-12.763 l -79.456,-5.55 c -0.042,-0.01 -0.083,-0.02 -0.124,-0.02 z"
     fill="#72590c"
     id="path1072" />
  <path
     d="m 198.279,55.638 c 6.746,0 12.215,-1.356 12.215,-3.028 0,-1.673 -5.469,-3.028 -12.215,-3.028 -6.746,0 -12.215,1.355 -12.215,3.028 0,1.672 5.469,3.028 12.215,3.028 z"
     fill="url(#paint15_linear)"
     id="path1074"
     style="fill:url(#paint15_linear)" />
  <path
     d="m 198.279,57.188 c -2.303,0 -13.764,-0.217 -13.764,-4.578 0,-4.361 11.472,-4.578 13.764,-4.578 2.303,0 13.764,0.217 13.764,4.578 0,4.361 -11.461,4.578 -13.764,4.578 z M 188.077,52.61 c 1.363,0.641 4.884,1.478 10.202,1.478 5.307,0 8.828,-0.837 10.202,-1.478 -1.363,-0.641 -4.884,-1.478 -10.202,-1.478 -5.307,-0.01 -8.828,0.827 -10.202,1.478 z"
     fill="#23307f"
     id="path1076" />
  <path
     d="m 298.542,138.201 h -17.626 v -28.43 c 0,-4.527 3.665,-8.206 8.198,-8.206 h 1.229 c 4.523,0 8.199,3.669 8.199,8.206 z"
     fill="url(#paint16_linear)"
     id="path1078"
     style="fill:url(#paint16_linear)" />
  <path
     d="m 298.541,139.752 h -17.626 c -0.857,0 -1.548,-0.692 -1.548,-1.55 v -28.431 c 0,-5.374 4.367,-9.756 9.747,-9.756 h 1.229 c 5.369,0 9.747,4.372 9.747,9.756 v 28.441 c 0,0.848 -0.692,1.54 -1.549,1.54 z m -16.077,-3.1 h 14.529 v -26.881 c 0,-3.669 -2.985,-6.655 -6.65,-6.655 h -1.229 c -3.666,0 -6.65,2.986 -6.65,6.655 z"
     fill="#72590c"
     id="path1080" />
  <defs
     id="defs1243">
    <linearGradient
       id="paint0_linear"
       x1="88.564903"
       y1="276.58701"
       x2="87.632896"
       y2="356.66699"
       gradientUnits="userSpaceOnUse"
       gradientTransform="translate(0,-140)">
      <stop
         stop-color="#FF8282"
         id="stop1086" />
      <stop
         offset="0.6108"
         stop-color="#FF0000"
         id="stop1088" />
      <stop
         offset="0.7135"
         stop-color="#FF0000"
         id="stop1090" />
      <stop
         offset="1"
         stop-color="#FF8282"
         id="stop1092" />
    </linearGradient>
    <linearGradient
       id="paint1_linear"
       x1="308.79599"
       y1="275.625"
       x2="308.79599"
       y2="357.56699"
       gradientUnits="userSpaceOnUse"
       gradientTransform="translate(0,-140)">
      <stop
         stop-color="#FF8282"
         id="stop1095" />
      <stop
         offset="0.6108"
         stop-color="#FF0000"
         id="stop1097" />
      <stop
         offset="0.7135"
         stop-color="#FF0000"
         id="stop1099" />
      <stop
         offset="1"
         stop-color="#FF8282"
         id="stop1101" />
    </linearGradient>
    <radialGradient
       id="paint2_radial"
       cx="0"
       cy="0"
       r="1"
       gradientUnits="userSpaceOnUse"
       gradientTransform="matrix(228.312,0,0,228.511,162.315,120.449)">
      <stop
         stop-color="#CFDCFF"
         id="stop1104" />
      <stop
         offset="0.1305"
         stop-color="#CCD9FD"
         id="stop1106" />
      <stop
         offset="0.2392"
         stop-color="#C1CFF7"
         id="stop1108" />
      <stop
         offset="0.3401"
         stop-color="#B0BFED"
         id="stop1110" />
      <stop
         offset="0.4362"
         stop-color="#98A9DF"
         id="stop1112" />
      <stop
         offset="0.5282"
         stop-color="#798CCD"
         id="stop1114" />
      <stop
         offset="0.5878"
         stop-color="#6075BF"
         id="stop1116" />
      <stop
         offset="0.6851"
         stop-color="#7587C7"
         id="stop1118" />
      <stop
         offset="0.79"
         stop-color="#CBD6FA"
         id="stop1120" />
    </radialGradient>
    <linearGradient
       id="paint3_linear"
       x1="188.021"
       y1="231.995"
       x2="223.09801"
       y2="260.46899"
       gradientUnits="userSpaceOnUse"
       gradientTransform="translate(0,-140)">
      <stop
         stop-color="#FF96C7"
         id="stop1123" />
      <stop
         offset="0.5405"
         stop-color="#FF0077"
         id="stop1125" />
      <stop
         offset="0.6486"
         stop-color="#FF0077"
         id="stop1127" />
      <stop
         offset="1"
         stop-color="#FF82BC"
         id="stop1129" />
    </linearGradient>
    <linearGradient
       id="paint4_linear"
       x1="309.58099"
       y1="401.55099"
       x2="138.037"
       y2="279.69501"
       gradientUnits="userSpaceOnUse"
       gradientTransform="translate(0,-140)">
      <stop
         offset="0.0347"
         stop-color="white"
         id="stop1132" />
      <stop
         offset="0.2282"
         stop-color="#FCFCFE"
         id="stop1134" />
      <stop
         offset="0.3893"
         stop-color="#F1F3F9"
         id="stop1136" />
      <stop
         offset="0.5388"
         stop-color="#E0E4F2"
         id="stop1138" />
      <stop
         offset="0.6814"
         stop-color="#C8CFE8"
         id="stop1140" />
      <stop
         offset="0.819"
         stop-color="#A8B3DB"
         id="stop1142" />
      <stop
         offset="0.9511"
         stop-color="#8292CB"
         id="stop1144" />
      <stop
         offset="1"
         stop-color="#7284C4"
         id="stop1146" />
    </linearGradient>
    <radialGradient
       id="paint5_radial"
       cx="0"
       cy="0"
       r="1"
       gradientUnits="userSpaceOnUse"
       gradientTransform="matrix(76.1216,0,0,76.1879,198.279,183.256)">
      <stop
         stop-color="white"
         id="stop1149" />
      <stop
         offset="0.1555"
         stop-color="#FFFEFC"
         id="stop1151" />
      <stop
         offset="0.2851"
         stop-color="#FFFDF1"
         id="stop1153" />
      <stop
         offset="0.4054"
         stop-color="#FFFAE0"
         id="stop1155" />
      <stop
         offset="0.5201"
         stop-color="#FFF6C8"
         id="stop1157" />
      <stop
         offset="0.6309"
         stop-color="#FFF1A8"
         id="stop1159" />
      <stop
         offset="0.7387"
         stop-color="#FFEA81"
         id="stop1161" />
      <stop
         offset="0.844"
         stop-color="#FFE353"
         id="stop1163" />
      <stop
         offset="0.9449"
         stop-color="#FFDA20"
         id="stop1165" />
      <stop
         offset="1"
         stop-color="#FFD500"
         id="stop1167" />
    </radialGradient>
    <linearGradient
       id="paint6_linear"
       x1="154.245"
       y1="244.37"
       x2="196.80099"
       y2="325.54199"
       gradientUnits="userSpaceOnUse"
       gradientTransform="translate(0,-140)">
      <stop
         stop-color="white"
         id="stop1170" />
      <stop
         offset="1"
         stop-color="white"
         stop-opacity="0"
         id="stop1172" />
    </linearGradient>
    <linearGradient
       id="paint7_linear"
       x1="102.715"
       y1="309.21399"
       x2="148.209"
       y2="258.39401"
       gradientUnits="userSpaceOnUse"
       gradientTransform="translate(0,-140)">
      <stop
         stop-color="white"
         stop-opacity="0"
         id="stop1175" />
      <stop
         offset="0.6108"
         stop-color="white"
         id="stop1177" />
      <stop
         offset="1"
         stop-color="white"
         stop-opacity="0"
         id="stop1179" />
    </linearGradient>
    <linearGradient
       id="paint8_linear"
       x1="238.554"
       y1="269.543"
       x2="204.467"
       y2="281.49899"
       gradientUnits="userSpaceOnUse"
       gradientTransform="translate(0,-140)">
      <stop
         stop-color="white"
         stop-opacity="0"
         id="stop1182" />
      <stop
         offset="0.6108"
         stop-color="white"
         id="stop1184" />
      <stop
         offset="1"
         stop-color="white"
         stop-opacity="0"
         id="stop1186" />
    </linearGradient>
    <linearGradient
       id="paint9_linear"
       x1="198.27901"
       y1="265.569"
       x2="198.27901"
       y2="231.927"
       gradientUnits="userSpaceOnUse"
       gradientTransform="translate(0,-140)">
      <stop
         stop-color="#FF96C7"
         id="stop1189" />
      <stop
         offset="0.5405"
         stop-color="#FF0077"
         id="stop1191" />
      <stop
         offset="0.6486"
         stop-color="#FF0077"
         id="stop1193" />
      <stop
         offset="1"
         stop-color="#FF82BC"
         id="stop1195" />
    </linearGradient>
    <linearGradient
       id="paint10_linear"
       x1="292.849"
       y1="325.69"
       x2="222.948"
       y2="385.41501"
       gradientUnits="userSpaceOnUse"
       gradientTransform="translate(0,-140)">
      <stop
         stop-opacity="0"
         id="stop1198" />
      <stop
         offset="0.5459"
         id="stop1200" />
      <stop
         offset="1"
         stop-opacity="0"
         id="stop1202" />
    </linearGradient>
    <linearGradient
       id="paint11_linear"
       x1="128.44099"
       y1="218.483"
       x2="260.172"
       y2="218.483"
       gradientUnits="userSpaceOnUse"
       gradientTransform="translate(0,-140)">
      <stop
         stop-color="#929CFF"
         id="stop1205" />
      <stop
         offset="0.6973"
         stop-color="#142CB8"
         id="stop1207" />
      <stop
         offset="1"
         stop-color="#7A8EFF"
         id="stop1209" />
    </linearGradient>
    <linearGradient
       id="paint12_linear"
       x1="70.097504"
       y1="165.879"
       x2="252.791"
       y2="209.513"
       gradientUnits="userSpaceOnUse"
       gradientTransform="translate(0,-140)">
      <stop
         stop-color="#929CFF"
         id="stop1212" />
      <stop
         offset="1"
         stop-color="#142CB8"
         id="stop1214" />
    </linearGradient>
    <linearGradient
       id="paint13_linear"
       x1="72.1604"
       y1="210.05499"
       x2="323.55499"
       y2="210.05499"
       gradientUnits="userSpaceOnUse"
       gradientTransform="translate(0,-140)">
      <stop
         stop-color="#929CFF"
         id="stop1217" />
      <stop
         offset="0.6973"
         stop-color="#142CB8"
         id="stop1219" />
      <stop
         offset="1"
         stop-color="#7A8EFF"
         id="stop1221" />
    </linearGradient>
    <linearGradient
       id="paint14_linear"
       x1="196.705"
       y1="223.821"
       x2="293.06"
       y2="223.821"
       gradientUnits="userSpaceOnUse"
       gradientTransform="translate(0,-140)">
      <stop
         stop-color="#FFD018"
         id="stop1224" />
      <stop
         offset="0.6973"
         stop-color="#B88D00"
         id="stop1226" />
      <stop
         offset="1"
         stop-color="#FFC400"
         id="stop1228" />
    </linearGradient>
    <linearGradient
       id="paint15_linear"
       x1="186.41701"
       y1="192.605"
       x2="221.592"
       y2="192.605"
       gradientUnits="userSpaceOnUse"
       gradientTransform="translate(0,-140)">
      <stop
         stop-color="#929CFF"
         id="stop1231" />
      <stop
         offset="1"
         stop-color="#142CB8"
         id="stop1233" />
    </linearGradient>
    <linearGradient
       id="paint16_linear"
       x1="280.91901"
       y1="259.883"
       x2="298.54099"
       y2="259.883"
       gradientUnits="userSpaceOnUse"
       gradientTransform="translate(0,-140)">
      <stop
         stop-color="#FFD018"
         id="stop1236" />
      <stop
         offset="0.6973"
         stop-color="#B88D00"
         id="stop1238" />
      <stop
         offset="1"
         stop-color="#FFC400"
         id="stop1240" />
    </linearGradient>
  </defs>
</svg>
