<?xml version="1.0" encoding="UTF-8" standalone="no"?>
<svg
   width="182.89349"
   height="169.61301"
   viewBox="0 0 182.89349 169.61301"
   fill="none"
   version="1.1"
   id="svg1245"
   sodipodi:docname="screen-eddefault-eyes1.svg"
   inkscape:version="1.2.1 (9c6d41e410, 2022-07-14)"
   inkscape:export-filename="master.png"
   inkscape:export-xdpi="96"
   inkscape:export-ydpi="96"
   xmlns:inkscape="http://www.inkscape.org/namespaces/inkscape"
   xmlns:sodipodi="http://sodipodi.sourceforge.net/DTD/sodipodi-0.dtd"
   xmlns="http://www.w3.org/2000/svg"
   xmlns:svg="http://www.w3.org/2000/svg">
  <sodipodi:namedview
     id="namedview1247"
     pagecolor="#ffffff"
     bordercolor="#000000"
     borderopacity="0.25"
     inkscape:showpageshadow="2"
     inkscape:pageopacity="0.0"
     inkscape:pagecheckerboard="0"
     inkscape:deskcolor="#d1d1d1"
     showgrid="false"
     inkscape:zoom="3.765808"
     inkscape:cx="9.1613805"
     inkscape:cy="86.435633"
     inkscape:window-width="1920"
     inkscape:window-height="991"
     inkscape:window-x="-9"
     inkscape:window-y="-9"
     inkscape:window-maximized="1"
     inkscape:current-layer="svg1245" />
  <g
     id="g479"
     transform="translate(0,180)">
    <path
       d="m 89.70675,45.762 c -3.707,0 -7.156,-1.994 -9.004,-5.198 l -12.669,-21.972 c -1.849,-3.203 -1.849,-7.193 0,-10.407 l 0.826,-1.436 c 1.848,-3.214 5.297,-5.199 9.004,-5.199 h 27.187 c 3.697,0 7.156,1.995 9.004,5.199 l 0.826,1.436 c 1.848,3.204 1.848,7.193 0,10.407 l -12.68,21.972 c -1.848,3.204 -5.297,5.198 -9.004,5.198 z"
       fill="url(#paint3_linear)"
       id="path1006"
       style="fill:url(#paint3_linear)" />
    <path
       d="m 105.04075,3.101 c 3.159,0 6.082,1.684 7.661,4.423 l 0.827,1.436 c 1.579,2.739 1.579,6.118 0,8.857 l -12.67,21.972 c -1.58,2.738 -4.502,4.423 -7.662,4.423 h -3.49 c -3.159,0 -6.082,-1.685 -7.661,-4.423 l -12.67,-21.972 c -1.58,-2.739 -1.58,-6.118 0,-8.857 l 0.826,-1.436 c 1.58,-2.739 4.502,-4.423 7.662,-4.423 z m 0,-3.101 h -27.188 c -4.254,0 -8.219,2.294 -10.346,5.974 l -0.826,1.436 c -2.127,3.69 -2.127,8.268 0,11.957 l 12.67,21.972 c 2.127,3.689 6.092,5.973 10.346,5.973 h 3.49 c 4.254,0 8.219,-2.294 10.346,-5.973 l 12.67,-21.972 c 2.127,-3.689 2.127,-8.267 0,-11.957 l -0.826,-1.436 C 113.25975,2.294 109.29475,0 105.04075,0 Z"
       fill="#9b073c"
       id="path1008" />
    <path
       d="m 91.45175,169.613 c -21.085,0 -42.593,-1.457 -63.916,-4.33 -11.306,-1.52 -20.517,-10.118 -22.912,-21.372 -6.165,-28.969 -6.165,-57.141 0,-86.109 2.395,-11.265 11.606,-19.853 22.912,-21.372 7.311,-0.982 14.766,-1.819 22.159,-2.47 0.413,-0.041 0.826,-0.052 1.229,-0.052 6.175,0 11.699,4.145 13.434,10.087 0.629,2.17 2.653,3.679 4.915,3.679 h 44.348 c 2.262,0 4.275,-1.519 4.915,-3.679 1.735,-5.932 7.259,-10.087 13.434,-10.087 0.413,0 0.816,0.021 1.229,0.052 7.414,0.651 14.869,1.478 22.159,2.46 11.306,1.519 20.517,10.107 22.912,21.372 6.165,28.968 6.165,57.14 0,86.108 -2.395,11.265 -11.606,19.853 -22.912,21.372 -21.312,2.884 -42.821,4.341 -63.906,4.341 z"
       fill="url(#paint4_linear)"
       id="path1036"
       style="fill:url(#paint4_linear)" />
    <path
       d="m 173.93375,58.722 c -2.003,-9.405 -9.634,-16.608 -19.165,-17.889 -7.341,-0.992 -14.652,-1.799 -21.962,-2.439 -4.544,-0.403 -8.736,2.47 -10.016,6.852 -1.188,4.082 -4.926,6.882 -9.169,6.882 h -44.339 c -4.244,0 -7.982,-2.8 -9.169,-6.882 -1.281,-4.382 -5.473,-7.255 -10.016,-6.852 -7.3,0.64 -14.621,1.457 -21.963,2.439 -9.52,1.281 -17.161,8.484 -19.164,17.889 -6.061,28.503 -6.072,55.725 0,84.259 2.003,9.414 9.634,16.618 19.164,17.899 42.449,5.715 84.185,5.715 126.645,0 9.53,-1.281 17.161,-8.485 19.164,-17.899 6.061,-28.524 6.061,-55.756 -0.01,-84.259 z"
       fill="url(#paint5_radial)"
       id="path1038"
       style="fill:url(#paint5_radial)" />
    <path
       d="m 91.45175,166.74 c -21.074,0 -42.149,-1.437 -63.523,-4.32 -10.109,-1.364 -18.328,-9.043 -20.476,-19.109 -6.082,-28.565 -6.071,-56.334 0,-84.909 2.148,-10.066 10.367,-17.745 20.466,-19.109 7.269,-0.982 14.672,-1.798 22.024,-2.45 5.266,-0.465 10.161,2.884 11.648,7.958 0.991,3.39 4.15,5.767 7.682,5.767 h 44.349 c 3.531,0 6.691,-2.367 7.682,-5.767 1.487,-5.074 6.381,-8.423 11.647,-7.958 7.352,0.652 14.766,1.468 22.025,2.45 10.099,1.364 18.328,9.043 20.465,19.109 6.082,28.565 6.082,56.334 0,84.909 -2.147,10.066 -10.366,17.745 -20.475,19.109 -21.354,2.873 -42.439,4.32 -63.514,4.32 z M 50.92375,39.903 c -0.237,0 -0.465,0.01 -0.702,0.031 -7.3,0.64 -14.673,1.467 -21.89,2.438 -8.808,1.189 -15.985,7.886 -17.854,16.681 -5.988,28.131 -5.988,55.486 0,83.617 1.869,8.795 9.046,15.492 17.854,16.681 42.469,5.715 83.751,5.715 126.231,0 8.808,-1.189 15.984,-7.896 17.853,-16.681 5.989,-28.131 5.989,-55.486 0,-83.617 -1.869,-8.795 -9.045,-15.492 -17.853,-16.681 -7.218,-0.971 -14.58,-1.787 -21.89,-2.438 -3.8,-0.331 -7.332,2.077 -8.395,5.746 -1.374,4.712 -5.762,7.999 -10.656,7.999 h -44.339 c -4.905,0 -9.283,-3.287 -10.656,-7.999 -1.012,-3.442 -4.182,-5.777 -7.703,-5.777 z"
       fill="#846f08"
       id="path1040" />
    <path
       d="m 149.77175,52.242 c 2.726,-3.08 0.836,-7.958 -3.242,-8.454 -4.833,-0.579 -10.45,-1.219 -14.054,-1.529 -2.106,-0.186 -4.037,0.723 -5.813,3.772 -0.072,0.134 -0.134,0.279 -0.175,0.413 -1.704,5.633 -6.981,9.549 -12.866,9.549 h -49.615 c -4.306,0 -7.486,-3.648 -7.404,-7.957 0.062,-3.287 -2.612,-5.808 -5.679,-5.808 -0.165,0 -0.33,0.01 -0.506,0.02 -7.269,0.641 -14.6,1.458 -21.777,2.419 -7.837,1.054 -14.218,7.027 -15.88,14.851 -4.564,21.454 -5.597,42.465 -3.109,63.713 0.352,2.997 3.212,5.053 6.165,4.413 18.39,-3.969 37.658,-10.459 56.843,-19.522 31.947,-15.089 58.526,-34.921 77.112,-55.88 z"
       fill="url(#paint6_linear)"
       id="path1042"
       style="fill:url(#paint6_linear)" />
    <path
       d="m 50.42775,42.259 c -5.72,1.333 -11.44,2.325 -17.171,3.214 -1.435,0.227 -2.86,0.455 -4.296,0.641 -1.332,0.237 -2.622,0.579 -3.851,1.085 -1.219,0.527 -2.406,1.126 -3.501,1.881 -1.084,0.765 -2.085,1.653 -2.984,2.625 -0.898,0.982 -1.693,2.046 -2.375,3.193 -0.66,1.158 -1.177,2.388 -1.6,3.648 -0.382,1.23 -0.702,2.698 -1.022,4.093 l -0.961,4.227 c -1.249,5.653 -2.374,11.337 -3.572,17.062 -0.176,-5.859 0.237,-11.719 1.022,-17.517 0.186,-1.457 0.403,-2.904 0.65,-4.341 0.259,-1.457 0.475,-2.842 0.868,-4.423 0.434,-1.519 1.043,-2.976 1.797,-4.361 0.784,-1.374 1.703,-2.666 2.756,-3.844 1.095,-1.148 2.303,-2.171 3.604,-3.06 1.322,-0.868 2.726,-1.591 4.213,-2.128 1.487,-0.528 3.046,-0.848 4.585,-1.034 1.456,-0.134 2.911,-0.227 4.367,-0.32 5.803,-0.393 11.637,-0.682 17.471,-0.641 z"
       fill="url(#paint7_linear)"
       id="path1044"
       style="fill:url(#paint7_linear)" />
    <path
       d="m 126.48775,46.454 c -0.135,2.873 -1.622,5.715 -3.873,7.762 -2.251,2.056 -5.297,3.317 -8.425,3.431 -2.902,0.051 -5.576,-0.104 -8.385,-0.331 -2.777,-0.269 -5.545,-0.61 -8.322,-1.313 2.777,-0.702 5.545,-1.043 8.322,-1.312 2.747,-0.248 5.607,-0.341 8.261,-0.372 2.416,-0.083 4.822,-0.827 6.959,-2.17 2.148,-1.323 3.986,-3.245 5.463,-5.695 z"
       fill="url(#paint8_linear)"
       id="path1046"
       style="fill:url(#paint8_linear)" />
    <path
       d="m 113.52875,15.595 -12.68,21.971 c -1.58,2.739 -4.502,4.424 -7.662,4.424 h -3.49 c -3.16,0 -6.082,-1.685 -7.662,-4.424 l -12.68,-21.971 c -0.598,-1.034 -0.97,-2.17 -1.115,-3.318 -0.237,1.892 0.134,3.835 1.115,5.54 l 12.68,21.971 c 1.58,2.739 4.502,4.424 7.662,4.424 h 3.49 c 3.16,0 6.082,-1.685 7.662,-4.424 l 12.68,-21.971 c 0.981,-1.705 1.352,-3.648 1.115,-5.54 -0.145,1.148 -0.516,2.284 -1.115,3.318 z"
       fill="url(#paint9_linear)"
       id="path1048"
       style="fill:url(#paint9_linear)" />
    <path
       opacity="0.4"
       d="m 172.07475,83.391 c 1.766,19.191 0.599,38.228 -3.542,57.647 -1.611,7.575 -7.785,13.352 -15.364,14.375 -20.528,2.77 -41.231,4.165 -61.531,4.165 -0.207,0 -0.424,0 -0.63,-0.01 v 4.051 c 17.533,0.02 29.387,-0.775 47.075,-2.325 3.335,-0.29 12.184,-1.427 15.622,-1.871 6.413,-0.848 10.068,-2.325 15.004,-8.423 0.877,-1.085 2.003,-3.028 2.86,-5.426 0.619,-1.725 1.012,-3.544 1.497,-6.097 0.795,-4.237 1.157,-6.139 1.673,-9.983 2.096,-15.554 2.819,-30.508 1.404,-46.103 z"
       fill="url(#paint10_linear)"
       id="path1050"
       style="fill:url(#paint10_linear)" />
  </g>
  <defs
     id="defs1243">
    <linearGradient
       id="paint0_linear"
       x1="88.564903"
       y1="276.58701"
       x2="87.632896"
       y2="356.66699"
       gradientUnits="userSpaceOnUse"
       gradientTransform="translate(-106.84261,18.11698)">
      <stop
         stop-color="#FF8282"
         id="stop1086" />
      <stop
         offset="0.6108"
         stop-color="#FF0000"
         id="stop1088" />
      <stop
         offset="0.7135"
         stop-color="#FF0000"
         id="stop1090" />
      <stop
         offset="1"
         stop-color="#FF8282"
         id="stop1092" />
    </linearGradient>
    <linearGradient
       id="paint1_linear"
       x1="308.79599"
       y1="275.625"
       x2="308.79599"
       y2="357.56699"
       gradientUnits="userSpaceOnUse"
       gradientTransform="translate(20,-140)">
      <stop
         stop-color="#FF8282"
         id="stop1095" />
      <stop
         offset="0.6108"
         stop-color="#FF0000"
         id="stop1097" />
      <stop
         offset="0.7135"
         stop-color="#FF0000"
         id="stop1099" />
      <stop
         offset="1"
         stop-color="#FF8282"
         id="stop1101" />
    </linearGradient>
    <radialGradient
       id="paint2_radial"
       cx="0"
       cy="0"
       r="1"
       gradientUnits="userSpaceOnUse"
       gradientTransform="matrix(228.312,0,0,228.511,162.315,120.449)">
      <stop
         stop-color="#CFDCFF"
         id="stop1104" />
      <stop
         offset="0.1305"
         stop-color="#CCD9FD"
         id="stop1106" />
      <stop
         offset="0.2392"
         stop-color="#C1CFF7"
         id="stop1108" />
      <stop
         offset="0.3401"
         stop-color="#B0BFED"
         id="stop1110" />
      <stop
         offset="0.4362"
         stop-color="#98A9DF"
         id="stop1112" />
      <stop
         offset="0.5282"
         stop-color="#798CCD"
         id="stop1114" />
      <stop
         offset="0.5878"
         stop-color="#6075BF"
         id="stop1116" />
      <stop
         offset="0.6851"
         stop-color="#7587C7"
         id="stop1118" />
      <stop
         offset="0.79"
         stop-color="#CBD6FA"
         id="stop1120" />
    </radialGradient>
    <linearGradient
       id="paint3_linear"
       x1="188.021"
       y1="231.995"
       x2="223.09801"
       y2="260.46899"
       gradientUnits="userSpaceOnUse"
       gradientTransform="translate(-106.82725,-221.495)">
      <stop
         stop-color="#FF96C7"
         id="stop1123" />
      <stop
         offset="0.5405"
         stop-color="#FF0077"
         id="stop1125" />
      <stop
         offset="0.6486"
         stop-color="#FF0077"
         id="stop1127" />
      <stop
         offset="1"
         stop-color="#FF82BC"
         id="stop1129" />
    </linearGradient>
    <linearGradient
       id="paint4_linear"
       x1="309.58099"
       y1="401.55099"
       x2="138.037"
       y2="279.69501"
       gradientUnits="userSpaceOnUse"
       gradientTransform="translate(-106.82725,-221.495)">
      <stop
         offset="0.0347"
         stop-color="white"
         id="stop1132" />
      <stop
         offset="0.2282"
         stop-color="#FCFCFE"
         id="stop1134" />
      <stop
         offset="0.3893"
         stop-color="#F1F3F9"
         id="stop1136" />
      <stop
         offset="0.5388"
         stop-color="#E0E4F2"
         id="stop1138" />
      <stop
         offset="0.6814"
         stop-color="#C8CFE8"
         id="stop1140" />
      <stop
         offset="0.819"
         stop-color="#A8B3DB"
         id="stop1142" />
      <stop
         offset="0.9511"
         stop-color="#8292CB"
         id="stop1144" />
      <stop
         offset="1"
         stop-color="#7284C4"
         id="stop1146" />
    </linearGradient>
    <radialGradient
       id="paint5_radial"
       cx="0"
       cy="0"
       r="1"
       gradientUnits="userSpaceOnUse"
       gradientTransform="matrix(76.1216,0,0,76.1879,91.45175,101.761)">
      <stop
         stop-color="white"
         id="stop1149" />
      <stop
         offset="0.1555"
         stop-color="#FFFEFC"
         id="stop1151" />
      <stop
         offset="0.2851"
         stop-color="#FFFDF1"
         id="stop1153" />
      <stop
         offset="0.4054"
         stop-color="#FFFAE0"
         id="stop1155" />
      <stop
         offset="0.5201"
         stop-color="#FFF6C8"
         id="stop1157" />
      <stop
         offset="0.6309"
         stop-color="#FFF1A8"
         id="stop1159" />
      <stop
         offset="0.7387"
         stop-color="#FFEA81"
         id="stop1161" />
      <stop
         offset="0.844"
         stop-color="#FFE353"
         id="stop1163" />
      <stop
         offset="0.9449"
         stop-color="#FFDA20"
         id="stop1165" />
      <stop
         offset="1"
         stop-color="#FFD500"
         id="stop1167" />
    </radialGradient>
    <linearGradient
       id="paint6_linear"
       x1="154.245"
       y1="244.37"
       x2="196.80099"
       y2="325.54199"
       gradientUnits="userSpaceOnUse"
       gradientTransform="translate(-106.82725,-221.495)">
      <stop
         stop-color="white"
         id="stop1170" />
      <stop
         offset="1"
         stop-color="white"
         stop-opacity="0"
         id="stop1172" />
    </linearGradient>
    <linearGradient
       id="paint7_linear"
       x1="102.715"
       y1="309.21399"
       x2="148.209"
       y2="258.39401"
       gradientUnits="userSpaceOnUse"
       gradientTransform="translate(-106.82725,-221.495)">
      <stop
         stop-color="white"
         stop-opacity="0"
         id="stop1175" />
      <stop
         offset="0.6108"
         stop-color="white"
         id="stop1177" />
      <stop
         offset="1"
         stop-color="white"
         stop-opacity="0"
         id="stop1179" />
    </linearGradient>
    <linearGradient
       id="paint8_linear"
       x1="238.554"
       y1="269.543"
       x2="204.467"
       y2="281.49899"
       gradientUnits="userSpaceOnUse"
       gradientTransform="translate(-106.82725,-221.495)">
      <stop
         stop-color="white"
         stop-opacity="0"
         id="stop1182" />
      <stop
         offset="0.6108"
         stop-color="white"
         id="stop1184" />
      <stop
         offset="1"
         stop-color="white"
         stop-opacity="0"
         id="stop1186" />
    </linearGradient>
    <linearGradient
       id="paint9_linear"
       x1="198.27901"
       y1="265.569"
       x2="198.27901"
       y2="231.927"
       gradientUnits="userSpaceOnUse"
       gradientTransform="translate(-106.82725,-221.495)">
      <stop
         stop-color="#FF96C7"
         id="stop1189" />
      <stop
         offset="0.5405"
         stop-color="#FF0077"
         id="stop1191" />
      <stop
         offset="0.6486"
         stop-color="#FF0077"
         id="stop1193" />
      <stop
         offset="1"
         stop-color="#FF82BC"
         id="stop1195" />
    </linearGradient>
    <linearGradient
       id="paint10_linear"
       x1="292.849"
       y1="325.69"
       x2="222.948"
       y2="385.41501"
       gradientUnits="userSpaceOnUse"
       gradientTransform="translate(-106.82725,-221.495)">
      <stop
         stop-opacity="0"
         id="stop1198" />
      <stop
         offset="0.5459"
         id="stop1200" />
      <stop
         offset="1"
         stop-opacity="0"
         id="stop1202" />
    </linearGradient>
    <linearGradient
       id="paint11_linear"
       x1="128.44099"
       y1="218.483"
       x2="260.172"
       y2="218.483"
       gradientUnits="userSpaceOnUse"
       gradientTransform="translate(-106.84261,18.11698)">
      <stop
         stop-color="#929CFF"
         id="stop1205" />
      <stop
         offset="0.6973"
         stop-color="#142CB8"
         id="stop1207" />
      <stop
         offset="1"
         stop-color="#7A8EFF"
         id="stop1209" />
    </linearGradient>
    <linearGradient
       id="paint12_linear"
       x1="70.097504"
       y1="165.879"
       x2="252.791"
       y2="209.513"
       gradientUnits="userSpaceOnUse"
       gradientTransform="translate(-106.84261,18.11698)">
      <stop
         stop-color="#929CFF"
         id="stop1212" />
      <stop
         offset="1"
         stop-color="#142CB8"
         id="stop1214" />
    </linearGradient>
    <linearGradient
       id="paint13_linear"
       x1="72.1604"
       y1="210.05499"
       x2="323.55499"
       y2="210.05499"
       gradientUnits="userSpaceOnUse"
       gradientTransform="translate(-106.84261,18.11698)">
      <stop
         stop-color="#929CFF"
         id="stop1217" />
      <stop
         offset="0.6973"
         stop-color="#142CB8"
         id="stop1219" />
      <stop
         offset="1"
         stop-color="#7A8EFF"
         id="stop1221" />
    </linearGradient>
    <linearGradient
       id="paint14_linear"
       x1="196.705"
       y1="223.821"
       x2="293.06"
       y2="223.821"
       gradientUnits="userSpaceOnUse"
       gradientTransform="translate(-106.84261,18.11698)">
      <stop
         stop-color="#FFD018"
         id="stop1224" />
      <stop
         offset="0.6973"
         stop-color="#B88D00"
         id="stop1226" />
      <stop
         offset="1"
         stop-color="#FFC400"
         id="stop1228" />
    </linearGradient>
    <linearGradient
       id="paint15_linear"
       x1="186.41701"
       y1="192.605"
       x2="221.592"
       y2="192.605"
       gradientUnits="userSpaceOnUse"
       gradientTransform="translate(-106.84261,18.11698)">
      <stop
         stop-color="#929CFF"
         id="stop1231" />
      <stop
         offset="1"
         stop-color="#142CB8"
         id="stop1233" />
    </linearGradient>
    <linearGradient
       id="paint16_linear"
       x1="280.91901"
       y1="259.883"
       x2="298.54099"
       y2="259.883"
       gradientUnits="userSpaceOnUse"
       gradientTransform="translate(-106.84261,18.11698)">
      <stop
         stop-color="#FFD018"
         id="stop1236" />
      <stop
         offset="0.6973"
         stop-color="#B88D00"
         id="stop1238" />
      <stop
         offset="1"
         stop-color="#FFC400"
         id="stop1240" />
    </linearGradient>
    <linearGradient
       id="paint10_linear-5"
       x1="292.849"
       y1="325.69"
       x2="222.948"
       y2="385.41501"
       gradientUnits="userSpaceOnUse"
       gradientTransform="translate(-106.84261,18.11698)">
      <stop
         stop-opacity="0"
         id="stop1198-3" />
      <stop
         offset="0.5459"
         id="stop1200-1" />
      <stop
         offset="1"
         stop-opacity="0"
         id="stop1202-2" />
    </linearGradient>
    <linearGradient
       id="paint9_linear-5"
       x1="198.27901"
       y1="265.569"
       x2="198.27901"
       y2="231.927"
       gradientUnits="userSpaceOnUse"
       gradientTransform="translate(-106.84261,18.11698)">
      <stop
         stop-color="#FF96C7"
         id="stop1189-1" />
      <stop
         offset="0.5405"
         stop-color="#FF0077"
         id="stop1191-3" />
      <stop
         offset="0.6486"
         stop-color="#FF0077"
         id="stop1193-7" />
      <stop
         offset="1"
         stop-color="#FF82BC"
         id="stop1195-6" />
    </linearGradient>
    <linearGradient
       id="paint8_linear-6"
       x1="238.554"
       y1="269.543"
       x2="204.467"
       y2="281.49899"
       gradientUnits="userSpaceOnUse"
       gradientTransform="translate(-106.84261,18.11698)">
      <stop
         stop-color="white"
         stop-opacity="0"
         id="stop1182-8" />
      <stop
         offset="0.6108"
         stop-color="white"
         id="stop1184-1" />
      <stop
         offset="1"
         stop-color="white"
         stop-opacity="0"
         id="stop1186-8" />
    </linearGradient>
    <linearGradient
       id="paint7_linear-9"
       x1="102.715"
       y1="309.21399"
       x2="148.209"
       y2="258.39401"
       gradientUnits="userSpaceOnUse"
       gradientTransform="translate(-106.84261,18.11698)">
      <stop
         stop-color="white"
         stop-opacity="0"
         id="stop1175-0" />
      <stop
         offset="0.6108"
         stop-color="white"
         id="stop1177-2" />
      <stop
         offset="1"
         stop-color="white"
         stop-opacity="0"
         id="stop1179-8" />
    </linearGradient>
    <linearGradient
       id="paint6_linear-3"
       x1="154.245"
       y1="244.37"
       x2="196.80099"
       y2="325.54199"
       gradientUnits="userSpaceOnUse"
       gradientTransform="translate(-106.84261,18.11698)">
      <stop
         stop-color="white"
         id="stop1170-0" />
      <stop
         offset="1"
         stop-color="white"
         stop-opacity="0"
         id="stop1172-6" />
    </linearGradient>
    <radialGradient
       id="paint5_radial-7"
       cx="0"
       cy="0"
       r="1"
       gradientUnits="userSpaceOnUse"
       gradientTransform="matrix(76.1216,0,0,76.1879,91.43639,341.37298)">
      <stop
         stop-color="white"
         id="stop1149-2" />
      <stop
         offset="0.1555"
         stop-color="#FFFEFC"
         id="stop1151-8" />
      <stop
         offset="0.2851"
         stop-color="#FFFDF1"
         id="stop1153-6" />
      <stop
         offset="0.4054"
         stop-color="#FFFAE0"
         id="stop1155-5" />
      <stop
         offset="0.5201"
         stop-color="#FFF6C8"
         id="stop1157-5" />
      <stop
         offset="0.6309"
         stop-color="#FFF1A8"
         id="stop1159-8" />
      <stop
         offset="0.7387"
         stop-color="#FFEA81"
         id="stop1161-0" />
      <stop
         offset="0.844"
         stop-color="#FFE353"
         id="stop1163-8" />
      <stop
         offset="0.9449"
         stop-color="#FFDA20"
         id="stop1165-1" />
      <stop
         offset="1"
         stop-color="#FFD500"
         id="stop1167-6" />
    </radialGradient>
    <linearGradient
       id="paint4_linear-5"
       x1="309.58099"
       y1="401.55099"
       x2="138.037"
       y2="279.69501"
       gradientUnits="userSpaceOnUse"
       gradientTransform="translate(-106.84261,18.11698)">
      <stop
         offset="0.0347"
         stop-color="white"
         id="stop1132-0" />
      <stop
         offset="0.2282"
         stop-color="#FCFCFE"
         id="stop1134-5" />
      <stop
         offset="0.3893"
         stop-color="#F1F3F9"
         id="stop1136-7" />
      <stop
         offset="0.5388"
         stop-color="#E0E4F2"
         id="stop1138-7" />
      <stop
         offset="0.6814"
         stop-color="#C8CFE8"
         id="stop1140-8" />
      <stop
         offset="0.819"
         stop-color="#A8B3DB"
         id="stop1142-2" />
      <stop
         offset="0.9511"
         stop-color="#8292CB"
         id="stop1144-8" />
      <stop
         offset="1"
         stop-color="#7284C4"
         id="stop1146-7" />
    </linearGradient>
    <linearGradient
       id="paint3_linear-4"
       x1="188.021"
       y1="231.995"
       x2="223.09801"
       y2="260.46899"
       gradientUnits="userSpaceOnUse"
       gradientTransform="translate(-106.84261,18.11698)">
      <stop
         stop-color="#FF96C7"
         id="stop1123-5" />
      <stop
         offset="0.5405"
         stop-color="#FF0077"
         id="stop1125-5" />
      <stop
         offset="0.6486"
         stop-color="#FF0077"
         id="stop1127-5" />
      <stop
         offset="1"
         stop-color="#FF82BC"
         id="stop1129-9" />
    </linearGradient>
    <radialGradient
       id="paint2_radial-4"
       cx="0"
       cy="0"
       r="1"
       gradientUnits="userSpaceOnUse"
       gradientTransform="matrix(228.312,0,0,228.511,55.47239,278.56598)">
      <stop
         stop-color="#CFDCFF"
         id="stop1104-9" />
      <stop
         offset="0.1305"
         stop-color="#CCD9FD"
         id="stop1106-9" />
      <stop
         offset="0.2392"
         stop-color="#C1CFF7"
         id="stop1108-7" />
      <stop
         offset="0.3401"
         stop-color="#B0BFED"
         id="stop1110-3" />
      <stop
         offset="0.4362"
         stop-color="#98A9DF"
         id="stop1112-2" />
      <stop
         offset="0.5282"
         stop-color="#798CCD"
         id="stop1114-2" />
      <stop
         offset="0.5878"
         stop-color="#6075BF"
         id="stop1116-1" />
      <stop
         offset="0.6851"
         stop-color="#7587C7"
         id="stop1118-6" />
      <stop
         offset="0.79"
         stop-color="#CBD6FA"
         id="stop1120-6" />
    </radialGradient>
    <linearGradient
       id="paint1_linear-5"
       x1="308.79599"
       y1="275.625"
       x2="308.79599"
       y2="357.56699"
       gradientUnits="userSpaceOnUse"
       gradientTransform="translate(-106.84261,18.11698)">
      <stop
         stop-color="#FF8282"
         id="stop1095-8" />
      <stop
         offset="0.6108"
         stop-color="#FF0000"
         id="stop1097-3" />
      <stop
         offset="0.7135"
         stop-color="#FF0000"
         id="stop1099-5" />
      <stop
         offset="1"
         stop-color="#FF8282"
         id="stop1101-4" />
    </linearGradient>
  </defs>
  <path
     d="m 49.72139,102.24475 c 5.52,0 9.995,-0.6899 9.995,-1.54086 0,-0.851063 -4.475,-1.54096 -9.995,-1.54096 -5.521,0 -9.996,0.689897 -9.996,1.54096 0,0.85096 4.475,1.54086 9.996,1.54086 z"
     fill="#031442"
     id="path1307"
     style="stroke-width:0.323925" />
  <path
     d="m 135.73439,102.24475 c 5.52,0 9.995,-0.6899 9.995,-1.54086 0,-0.851063 -4.475,-1.54096 -9.995,-1.54096 -5.521,0 -9.996,0.689897 -9.996,1.54096 0,0.85096 4.475,1.54086 9.996,1.54086 z"
     fill="#031442"
     id="path1309"
     style="stroke-width:0.323925" />
</svg>
